<svg width="889" height="751" viewBox="0 0 889 751" fill="none" xmlns="http://www.w3.org/2000/svg">
<path d="M705 36L711.511 55.3554H732.581L715.535 67.3177L722.046 86.673L705 74.7108L687.954 86.673L694.465 67.3177L677.419 55.3554H698.489L705 36Z" fill="#E7E6E6"/>
<path d="M72 694L78.5109 713.355H99.5806L82.5349 725.318L89.0458 744.673L72 732.711L54.9542 744.673L61.4651 725.318L44.4194 713.355H65.4891L72 694Z" fill="#E7E6E6"/>
<path d="M29 0L35.5109 19.3554H56.5806L39.5349 31.3177L46.0458 50.673L29 38.7108L11.9542 50.673L18.4651 31.3177L1.41936 19.3554H22.4891L29 0Z" fill="#E7E6E6"/>
<path d="M860 636L866.511 655.355H887.581L870.535 667.318L877.046 686.673L860 674.711L842.954 686.673L849.465 667.318L832.419 655.355H853.489L860 636Z" fill="#E7E6E6"/>
</svg>
