<svg width="784" height="658" viewBox="0 0 784 658" fill="none" xmlns="http://www.w3.org/2000/svg">
<path d="M34.3024 85.1105L53.8689 104.636L78.524 92.0999L65.9616 116.704L85.5281 136.23L58.1976 131.91L45.6352 156.514L41.3064 129.24L13.976 124.92L38.6311 112.384L34.3024 85.1105Z" fill="white" fill-opacity="0.5"/>
<path d="M663.527 17.2548L683.093 36.7805L707.748 24.2442L695.186 48.8481L714.752 68.3739L687.422 64.0542L674.859 88.6581L670.531 61.3845L643.2 57.0647L667.855 44.5284L663.527 17.2548Z" fill="white" fill-opacity="0.5"/>
<path d="M85.3245 423.255L104.891 442.781L129.546 430.244L116.984 454.848L136.55 474.374L109.22 470.054L96.6573 494.658L92.3285 467.384L64.9981 463.065L89.6532 450.528L85.3245 423.255Z" fill="white" fill-opacity="0.5"/>
<path d="M714.633 572.255L734.199 591.781L758.854 579.244L746.292 603.848L765.859 623.374L738.528 619.054L725.966 643.658L721.637 616.384L694.306 612.065L718.962 599.528L714.633 572.255Z" fill="white" fill-opacity="0.5"/>
</svg>
